<?xml version="1.0" encoding="UTF-8"?>
<svg id="Layer_2" data-name="Layer 2" xmlns="http://www.w3.org/2000/svg" viewBox="0 0 346.99 107.21">
  <defs>
    <style>
      .cls-1 {
        isolation: isolate;
      }

      .cls-2 {
        fill: #ce1a19;
      }
    </style>
  </defs>
  <g id="Layer_1-2" data-name="Layer 1">
    <g>
      <path d="M55.68,0h-20.77L0,91.92h20.64l7.5-20.51h34.18l7.23,20.51h21.1L55.75,0h-.07ZM59.13,41.48c-7.5,2.59-12.21,8.69-13.61,16.39-1.33-9.42-8.3-15.86-17.52-17.52,9.16-1,16.39-8.36,17.52-17.52,1.53,8.96,7.96,16.19,17.19,17.32-1.13.27-2.39.8-3.58,1.19v.13Z"/>
      <path class="cls-2" d="M97.72,26.59c-.17-.63-.51-1.31-.74-1.94-1.43-4.11-4.79-6.73-9.01-7.47,5.19-.68,8.73-4.56,9.64-9.58.57,5.02,4.62,9.01,9.64,9.58-4.91.86-8.9,4.39-9.53,9.41h0Z"/>
      <path d="M98.35.13v5.89c.65,5.54,5.04,10.03,10.64,10.67l.03.99c-5.79,1.01-9.97,5.12-10.67,10.47v63.76h20.24V.13h-20.24Z"/>
      <g class="cls-1">
        <g class="cls-1">
          <path d="M167.63,53.26c-.77-7.43-5.3-11.14-13.6-11.14-3.95,0-6.99.79-9.15,2.38-2.15,1.59-3.23,3.82-3.23,6.69,0,1.03.15,1.92.46,2.69.31.77.83,1.45,1.58,2.04.74.59,1.45,1.09,2.11,1.5.67.41,1.72.82,3.15,1.23,1.44.41,2.59.71,3.46.88.87.18,2.23.47,4.07.88,2.25.46,4.12.88,5.61,1.27,1.49.38,3.25,1.01,5.3,1.88s3.68,1.83,4.88,2.88c1.2,1.05,2.25,2.45,3.15,4.19s1.34,3.71,1.34,5.92c0,3.84-1.08,7.06-3.23,9.65-2.15,2.59-4.77,4.39-7.84,5.42-3.07,1.03-6.48,1.54-10.22,1.54-6.87,0-12.36-1.63-16.49-4.88-4.12-3.25-6.19-8.06-6.19-14.41h6.99c.15,4.66,1.72,8.06,4.69,10.18,2.97,2.13,6.84,3.19,11.61,3.19,3.74,0,6.94-.78,9.61-2.34s4-4.11,4-7.65c0-1.64-.36-3.04-1.08-4.19-.72-1.15-1.84-2.1-3.38-2.84-1.54-.74-3.07-1.35-4.61-1.81s-3.56-.97-6.07-1.54c-.36-.05-.62-.1-.77-.15-5.64-1.28-9.33-2.3-11.07-3.07-5.33-2.31-7.99-6.28-7.99-11.91,0-5.23,1.93-9.13,5.8-11.72,3.87-2.59,8.54-3.88,14.03-3.88,5.99,0,10.79,1.44,14.37,4.3,3.59,2.87,5.48,7.15,5.69,12.84h-7Z"/>
          <path d="M190.68,57.87c2.87-4.56,7.33-6.84,13.37-6.84,5.53,0,9.93,1.87,13.18,5.61,3.25,3.74,4.88,8.81,4.88,15.22s-1.6,11.52-4.8,15.33c-3.2,3.82-7.52,5.73-12.95,5.73s-10.12-2.18-13.3-6.53v20.83h-6.53v-54.95h6.15v5.61ZM194.1,60.6c-2.18,2.74-3.27,6.52-3.27,11.34s1.12,8.6,3.34,11.34,5.27,4.11,9.11,4.11,6.69-1.38,8.84-4.15c2.15-2.77,3.23-6.53,3.23-11.3s-1.09-8.6-3.27-11.34c-2.18-2.74-5.19-4.11-9.03-4.11s-6.78,1.37-8.95,4.11Z"/>
          <path d="M265.23,91.76c-1.33.51-2.82.77-4.46.77-3.74,0-5.66-1.95-5.76-5.84-3.74,4.2-8.53,6.3-14.37,6.3-3.89,0-6.98-1-9.26-3-2.28-2-3.42-4.74-3.42-8.22,0-7.07,4.69-11.2,14.06-12.37.62-.1,1.51-.2,2.69-.31,4.46-.51,7.2-1.1,8.22-1.77,1.18-.82,1.77-2.23,1.77-4.23,0-4.36-3-6.53-8.99-6.53-3.07,0-5.41.63-6.99,1.88s-2.54,3.32-2.84,6.19h-6.38c.1-4.25,1.61-7.56,4.53-9.92,2.92-2.36,6.94-3.54,12.07-3.54,5.58,0,9.73,1.28,12.45,3.84.87.82,1.51,1.9,1.92,3.23.41,1.33.64,2.42.69,3.27s.08,2.11.08,3.8c0,1.95-.05,4.89-.15,8.84-.1,3.95-.15,6.89-.15,8.84,0,1.43.19,2.45.58,3.04.38.59,1.09.88,2.11.88.41,0,.95-.08,1.61-.23v5.07ZM253.24,72.24c-.51.26-1.17.46-1.96.62-.79.15-1.33.27-1.61.35s-.96.18-2.04.31c-1.08.13-1.64.19-1.69.19-1.59.21-2.63.35-3.11.42-.49.08-1.41.29-2.77.65-1.36.36-2.32.77-2.88,1.23-.56.46-1.12,1.14-1.65,2.04-.54.9-.81,1.96-.81,3.19,0,2.05.7,3.66,2.11,4.84,1.41,1.18,3.34,1.77,5.8,1.77,3.12,0,5.92-.92,8.38-2.77,2.46-1.84,3.69-4.02,3.69-6.53v-7.23c-.46.36-.95.67-1.46.92Z"/>
          <path d="M300.08,88.84c-3.05,2.82-7.01,4.23-11.88,4.23-6,0-10.63-1.86-13.91-5.57s-4.92-8.67-4.92-14.87c0-6.61,1.72-11.85,5.15-15.72,3.43-3.87,8.07-5.8,13.91-5.8,4.87,0,8.76,1.22,11.68,3.65s4.64,5.91,5.15,10.41h-6.76c-1.18-5.74-4.51-8.61-9.99-8.61-3.79,0-6.79,1.4-8.99,4.19s-3.3,6.57-3.3,11.34,1.05,8.61,3.15,11.38c2.1,2.77,5,4.15,8.68,4.15,2.97,0,5.39-.87,7.26-2.61s3.06-4.25,3.57-7.53h6.61c-.56,4.76-2.37,8.56-5.42,11.38Z"/>
          <path d="M329.24,93.22c-5.84,0-10.41-1.82-13.72-5.46s-4.96-8.68-4.96-15.14,1.7-11.59,5.11-15.56c3.41-3.97,7.85-5.96,13.33-5.96,6.1,0,10.62,2.06,13.57,6.19,2.95,4.12,4.42,9.34,4.42,15.64v.92h-29.82l-.08.46c0,4.2,1.1,7.51,3.3,9.91s5.23,3.61,9.07,3.61c2.87,0,5.14-.67,6.8-2,1.67-1.33,2.96-3.48,3.88-6.46h6.38c-2,9.22-7.76,13.83-17.29,13.83ZM336.77,59.67c-2-2.13-4.64-3.19-7.92-3.19s-5.82,1.08-7.92,3.23c-2.1,2.15-3.36,5.1-3.77,8.84h23.06c-.31-3.79-1.46-6.75-3.46-8.88Z"/>
        </g>
      </g>
      <rect x="123.97" y="85.41" width="6.5" height="6.5"/>
    </g>
  </g>
</svg>